<mxfile host="65bd71144e">
    <diagram id="jiOBFgiheBO2kc76T8QO" name="Page-1">
        <mxGraphModel dx="5490" dy="3355" grid="1" gridSize="10" guides="1" tooltips="1" connect="1" arrows="1" fold="1" page="1" pageScale="1" pageWidth="850" pageHeight="1100" math="0" shadow="0">
            <root>
                <mxCell id="0"/>
                <mxCell id="1" parent="0"/>
                <mxCell id="2" value="" style="whiteSpace=wrap;html=1;fillColor=#B0E3E6;strokeColor=#0e8088;" parent="1" vertex="1">
                    <mxGeometry x="155" y="170" width="150" height="210" as="geometry"/>
                </mxCell>
                <mxCell id="3" value="Shop.io" style="text;html=1;resizable=0;autosize=1;align=center;verticalAlign=middle;points=[];fillColor=none;strokeColor=none;rounded=0;fontColor=#F06767;" parent="1" vertex="1">
                    <mxGeometry x="200" y="190" width="60" height="20" as="geometry"/>
                </mxCell>
                <mxCell id="4" value="One way stop for all&lt;br&gt;your needs!" style="text;html=1;resizable=0;autosize=1;align=center;verticalAlign=middle;points=[];fillColor=none;strokeColor=none;rounded=0;fontColor=#F06767;" parent="1" vertex="1">
                    <mxGeometry x="170" y="280" width="120" height="30" as="geometry"/>
                </mxCell>
                <mxCell id="55" style="edgeStyle=none;html=1;entryX=0.5;entryY=0;entryDx=0;entryDy=0;fontColor=#FF9933;strokeWidth=4;" edge="1" parent="1" source="7" target="36">
                    <mxGeometry relative="1" as="geometry"/>
                </mxCell>
                <mxCell id="7" value="&lt;font color=&quot;#b0e3e6&quot;&gt;Explore&lt;br&gt;&lt;/font&gt;" style="text;html=1;resizable=0;autosize=1;align=center;verticalAlign=middle;points=[];rounded=0;fillColor=#fa6800;fontColor=#000000;strokeColor=#C73500;" parent="1" vertex="1">
                    <mxGeometry x="160" y="330" width="60" height="20" as="geometry"/>
                </mxCell>
                <mxCell id="35" style="edgeStyle=none;html=1;entryX=0;entryY=0.064;entryDx=0;entryDy=0;entryPerimeter=0;fontColor=#FF9933;strokeWidth=4;" edge="1" parent="1" source="8" target="9">
                    <mxGeometry relative="1" as="geometry"/>
                </mxCell>
                <mxCell id="8" value="&lt;font color=&quot;#b0e3e6&quot;&gt;Search&lt;br&gt;&lt;/font&gt;" style="text;html=1;resizable=0;autosize=1;align=center;verticalAlign=middle;points=[];rounded=0;fillColor=#fa6800;fontColor=#000000;strokeColor=#C73500;" parent="1" vertex="1">
                    <mxGeometry x="245" y="330" width="50" height="20" as="geometry"/>
                </mxCell>
                <mxCell id="9" value="" style="whiteSpace=wrap;html=1;fillColor=#B0E3E6;strokeColor=#0e8088;" parent="1" vertex="1">
                    <mxGeometry x="460" y="330" width="150" height="210" as="geometry"/>
                </mxCell>
                <mxCell id="16" value="&lt;font color=&quot;#f06767&quot;&gt;Looking for...&lt;/font&gt;" style="whiteSpace=wrap;html=1;fillColor=none;perimeterSpacing=16;strokeWidth=2;rounded=1;align=left;fontColor=#FF9933;strokeColor=#F06767;" parent="1" vertex="1">
                    <mxGeometry x="467.5" y="340" width="135" height="20" as="geometry"/>
                </mxCell>
                <mxCell id="17" value="&lt;font color=&quot;#ff9933&quot;&gt;Prod&lt;/font&gt;" style="whiteSpace=wrap;html=1;fillColor=#dae8fc;strokeColor=#6c8ebf;" vertex="1" parent="1">
                    <mxGeometry x="467.5" y="380" width="32.5" height="30" as="geometry"/>
                </mxCell>
                <mxCell id="19" value="" style="whiteSpace=wrap;html=1;fillColor=#dae8fc;strokeColor=#6c8ebf;" vertex="1" parent="1">
                    <mxGeometry x="510" y="380" width="32.5" height="30" as="geometry"/>
                </mxCell>
                <mxCell id="20" value="" style="whiteSpace=wrap;html=1;fillColor=#dae8fc;strokeColor=#6c8ebf;" vertex="1" parent="1">
                    <mxGeometry x="560" y="380" width="32.5" height="30" as="geometry"/>
                </mxCell>
                <mxCell id="21" value="" style="whiteSpace=wrap;html=1;fillColor=#dae8fc;strokeColor=#6c8ebf;" vertex="1" parent="1">
                    <mxGeometry x="467.5" y="420" width="32.5" height="30" as="geometry"/>
                </mxCell>
                <mxCell id="22" value="" style="whiteSpace=wrap;html=1;fillColor=#dae8fc;strokeColor=#6c8ebf;" vertex="1" parent="1">
                    <mxGeometry x="510" y="420" width="32.5" height="30" as="geometry"/>
                </mxCell>
                <mxCell id="23" value="" style="whiteSpace=wrap;html=1;fillColor=#dae8fc;strokeColor=#6c8ebf;" vertex="1" parent="1">
                    <mxGeometry x="560" y="420" width="32.5" height="30" as="geometry"/>
                </mxCell>
                <mxCell id="24" value="" style="whiteSpace=wrap;html=1;fillColor=#dae8fc;strokeColor=#6c8ebf;" vertex="1" parent="1">
                    <mxGeometry x="467.5" y="460" width="32.5" height="30" as="geometry"/>
                </mxCell>
                <mxCell id="25" value="" style="whiteSpace=wrap;html=1;fillColor=#dae8fc;strokeColor=#6c8ebf;" vertex="1" parent="1">
                    <mxGeometry x="510" y="460" width="32.5" height="30" as="geometry"/>
                </mxCell>
                <mxCell id="26" value="" style="whiteSpace=wrap;html=1;fillColor=#dae8fc;strokeColor=#6c8ebf;" vertex="1" parent="1">
                    <mxGeometry x="560" y="460" width="32.5" height="30" as="geometry"/>
                </mxCell>
                <mxCell id="27" value="&lt;font color=&quot;#ff9933&quot;&gt;Prod&lt;/font&gt;" style="whiteSpace=wrap;html=1;fillColor=#dae8fc;strokeColor=#6c8ebf;" vertex="1" parent="1">
                    <mxGeometry x="510" y="380" width="32.5" height="30" as="geometry"/>
                </mxCell>
                <mxCell id="28" value="&lt;font color=&quot;#ff9933&quot;&gt;Prod&lt;/font&gt;" style="whiteSpace=wrap;html=1;fillColor=#dae8fc;strokeColor=#6c8ebf;" vertex="1" parent="1">
                    <mxGeometry x="560" y="380" width="32.5" height="30" as="geometry"/>
                </mxCell>
                <mxCell id="101" style="edgeStyle=orthogonalEdgeStyle;curved=1;html=1;entryX=1;entryY=0;entryDx=0;entryDy=0;fontSize=8;fontColor=#FF9933;strokeWidth=4;" edge="1" parent="1" source="29" target="36">
                    <mxGeometry relative="1" as="geometry"/>
                </mxCell>
                <mxCell id="29" value="&lt;font color=&quot;#ff9933&quot;&gt;Prod&lt;/font&gt;" style="whiteSpace=wrap;html=1;fillColor=#dae8fc;strokeColor=#6c8ebf;" vertex="1" parent="1">
                    <mxGeometry x="467.5" y="420" width="32.5" height="30" as="geometry"/>
                </mxCell>
                <mxCell id="30" value="&lt;font color=&quot;#ff9933&quot;&gt;Prod&lt;/font&gt;" style="whiteSpace=wrap;html=1;fillColor=#dae8fc;strokeColor=#6c8ebf;" vertex="1" parent="1">
                    <mxGeometry x="510" y="420" width="32.5" height="30" as="geometry"/>
                </mxCell>
                <mxCell id="31" value="&lt;font color=&quot;#ff9933&quot;&gt;Prod&lt;/font&gt;" style="whiteSpace=wrap;html=1;fillColor=#dae8fc;strokeColor=#6c8ebf;" vertex="1" parent="1">
                    <mxGeometry x="560" y="420" width="32.5" height="30" as="geometry"/>
                </mxCell>
                <mxCell id="32" value="&lt;font color=&quot;#ff9933&quot;&gt;Prod&lt;/font&gt;" style="whiteSpace=wrap;html=1;fillColor=#dae8fc;strokeColor=#6c8ebf;" vertex="1" parent="1">
                    <mxGeometry x="467.5" y="460" width="32.5" height="30" as="geometry"/>
                </mxCell>
                <mxCell id="33" value="&lt;font color=&quot;#ff9933&quot;&gt;Prod&lt;/font&gt;" style="whiteSpace=wrap;html=1;fillColor=#dae8fc;strokeColor=#6c8ebf;" vertex="1" parent="1">
                    <mxGeometry x="510" y="460" width="32.5" height="30" as="geometry"/>
                </mxCell>
                <mxCell id="34" value="&lt;font color=&quot;#ff9933&quot;&gt;Prod&lt;/font&gt;" style="whiteSpace=wrap;html=1;fillColor=#dae8fc;strokeColor=#6c8ebf;" vertex="1" parent="1">
                    <mxGeometry x="560" y="460" width="32.5" height="30" as="geometry"/>
                </mxCell>
                <mxCell id="36" value="" style="whiteSpace=wrap;html=1;fillColor=#B0E3E6;strokeColor=#0e8088;" vertex="1" parent="1">
                    <mxGeometry x="115" y="470" width="150" height="210" as="geometry"/>
                </mxCell>
                <mxCell id="37" value="&lt;font style=&quot;font-size: 8px&quot;&gt;Trending&lt;/font&gt;" style="whiteSpace=wrap;html=1;fillColor=none;perimeterSpacing=16;strokeWidth=2;rounded=1;align=center;fontColor=#FF9933;strokeColor=#F06767;" vertex="1" parent="1">
                    <mxGeometry x="122.5" y="480" width="37.5" height="20" as="geometry"/>
                </mxCell>
                <mxCell id="38" value="&lt;font color=&quot;#ff9933&quot;&gt;Prod&lt;/font&gt;" style="whiteSpace=wrap;html=1;fillColor=#dae8fc;strokeColor=#6c8ebf;" vertex="1" parent="1">
                    <mxGeometry x="122.5" y="520" width="32.5" height="30" as="geometry"/>
                </mxCell>
                <mxCell id="39" value="" style="whiteSpace=wrap;html=1;fillColor=#dae8fc;strokeColor=#6c8ebf;" vertex="1" parent="1">
                    <mxGeometry x="165" y="520" width="32.5" height="30" as="geometry"/>
                </mxCell>
                <mxCell id="40" value="" style="whiteSpace=wrap;html=1;fillColor=#dae8fc;strokeColor=#6c8ebf;" vertex="1" parent="1">
                    <mxGeometry x="215" y="520" width="32.5" height="30" as="geometry"/>
                </mxCell>
                <mxCell id="41" value="" style="whiteSpace=wrap;html=1;fillColor=#dae8fc;strokeColor=#6c8ebf;" vertex="1" parent="1">
                    <mxGeometry x="122.5" y="560" width="32.5" height="30" as="geometry"/>
                </mxCell>
                <mxCell id="42" value="" style="whiteSpace=wrap;html=1;fillColor=#dae8fc;strokeColor=#6c8ebf;" vertex="1" parent="1">
                    <mxGeometry x="165" y="560" width="32.5" height="30" as="geometry"/>
                </mxCell>
                <mxCell id="43" value="" style="whiteSpace=wrap;html=1;fillColor=#dae8fc;strokeColor=#6c8ebf;" vertex="1" parent="1">
                    <mxGeometry x="215" y="560" width="32.5" height="30" as="geometry"/>
                </mxCell>
                <mxCell id="44" value="" style="whiteSpace=wrap;html=1;fillColor=#dae8fc;strokeColor=#6c8ebf;" vertex="1" parent="1">
                    <mxGeometry x="122.5" y="600" width="32.5" height="30" as="geometry"/>
                </mxCell>
                <mxCell id="45" value="" style="whiteSpace=wrap;html=1;fillColor=#dae8fc;strokeColor=#6c8ebf;" vertex="1" parent="1">
                    <mxGeometry x="165" y="600" width="32.5" height="30" as="geometry"/>
                </mxCell>
                <mxCell id="46" value="" style="whiteSpace=wrap;html=1;fillColor=#dae8fc;strokeColor=#6c8ebf;" vertex="1" parent="1">
                    <mxGeometry x="215" y="600" width="32.5" height="30" as="geometry"/>
                </mxCell>
                <mxCell id="47" value="&lt;font color=&quot;#ff9933&quot;&gt;Prod&lt;/font&gt;" style="whiteSpace=wrap;html=1;fillColor=#dae8fc;strokeColor=#6c8ebf;" vertex="1" parent="1">
                    <mxGeometry x="165" y="520" width="32.5" height="30" as="geometry"/>
                </mxCell>
                <mxCell id="48" value="&lt;font color=&quot;#ff9933&quot;&gt;Prod&lt;/font&gt;" style="whiteSpace=wrap;html=1;fillColor=#dae8fc;strokeColor=#6c8ebf;" vertex="1" parent="1">
                    <mxGeometry x="215" y="520" width="32.5" height="30" as="geometry"/>
                </mxCell>
                <mxCell id="49" value="&lt;font color=&quot;#ff9933&quot;&gt;Prod&lt;/font&gt;" style="whiteSpace=wrap;html=1;fillColor=#dae8fc;strokeColor=#6c8ebf;" vertex="1" parent="1">
                    <mxGeometry x="122.5" y="560" width="32.5" height="30" as="geometry"/>
                </mxCell>
                <mxCell id="50" value="&lt;font color=&quot;#ff9933&quot;&gt;Prod&lt;/font&gt;" style="whiteSpace=wrap;html=1;fillColor=#dae8fc;strokeColor=#6c8ebf;" vertex="1" parent="1">
                    <mxGeometry x="165" y="560" width="32.5" height="30" as="geometry"/>
                </mxCell>
                <mxCell id="51" value="&lt;font color=&quot;#ff9933&quot;&gt;Prod&lt;/font&gt;" style="whiteSpace=wrap;html=1;fillColor=#dae8fc;strokeColor=#6c8ebf;" vertex="1" parent="1">
                    <mxGeometry x="215" y="560" width="32.5" height="30" as="geometry"/>
                </mxCell>
                <mxCell id="52" value="&lt;font color=&quot;#ff9933&quot;&gt;Prod&lt;/font&gt;" style="whiteSpace=wrap;html=1;fillColor=#dae8fc;strokeColor=#6c8ebf;" vertex="1" parent="1">
                    <mxGeometry x="122.5" y="600" width="32.5" height="30" as="geometry"/>
                </mxCell>
                <mxCell id="59" style="edgeStyle=none;html=1;fontSize=8;fontColor=#FF9933;strokeWidth=4;entryX=0.5;entryY=0;entryDx=0;entryDy=0;" edge="1" parent="1" source="53" target="60">
                    <mxGeometry relative="1" as="geometry">
                        <mxPoint x="181.25" y="770" as="targetPoint"/>
                    </mxGeometry>
                </mxCell>
                <mxCell id="53" value="&lt;font color=&quot;#ff9933&quot;&gt;Prod&lt;/font&gt;" style="whiteSpace=wrap;html=1;fillColor=#dae8fc;strokeColor=#6c8ebf;" vertex="1" parent="1">
                    <mxGeometry x="165" y="600" width="32.5" height="30" as="geometry"/>
                </mxCell>
                <mxCell id="54" value="&lt;font color=&quot;#ff9933&quot;&gt;Prod&lt;/font&gt;" style="whiteSpace=wrap;html=1;fillColor=#dae8fc;strokeColor=#6c8ebf;" vertex="1" parent="1">
                    <mxGeometry x="215" y="600" width="32.5" height="30" as="geometry"/>
                </mxCell>
                <mxCell id="56" value="&lt;span style=&quot;font-size: 8px&quot;&gt;New&lt;/span&gt;" style="whiteSpace=wrap;html=1;fillColor=none;perimeterSpacing=16;strokeWidth=2;rounded=1;align=center;fontColor=#FF9933;strokeColor=#F06767;" vertex="1" parent="1">
                    <mxGeometry x="171.25" y="480" width="37.5" height="20" as="geometry"/>
                </mxCell>
                <mxCell id="57" value="&lt;span style=&quot;font-size: 8px&quot;&gt;All Time&lt;/span&gt;" style="whiteSpace=wrap;html=1;fillColor=none;perimeterSpacing=16;strokeWidth=2;rounded=1;align=center;fontColor=#FF9933;strokeColor=#F06767;" vertex="1" parent="1">
                    <mxGeometry x="220" y="480" width="37.5" height="20" as="geometry"/>
                </mxCell>
                <mxCell id="60" value="" style="whiteSpace=wrap;html=1;fillColor=#B0E3E6;strokeColor=#0e8088;" vertex="1" parent="1">
                    <mxGeometry x="115" y="770" width="150" height="210" as="geometry"/>
                </mxCell>
                <mxCell id="61" value="&lt;font color=&quot;#ff9933&quot;&gt;Prod&lt;/font&gt;" style="whiteSpace=wrap;html=1;fillColor=#dae8fc;strokeColor=#6c8ebf;" vertex="1" parent="1">
                    <mxGeometry x="128.75" y="780" width="122.5" height="90" as="geometry"/>
                </mxCell>
                <mxCell id="62" value="&lt;font color=&quot;#ff9933&quot;&gt;Date Posted&lt;/font&gt;" style="whiteSpace=wrap;html=1;labelBackgroundColor=none;fontSize=8;fillColor=#dae8fc;strokeColor=#6c8ebf;" vertex="1" parent="1">
                    <mxGeometry x="128.75" y="880" width="45" height="20" as="geometry"/>
                </mxCell>
                <mxCell id="64" value="&lt;font color=&quot;#ff9933&quot;&gt;Seller&lt;/font&gt;" style="whiteSpace=wrap;html=1;labelBackgroundColor=none;fontSize=8;fillColor=#dae8fc;strokeColor=#6c8ebf;" vertex="1" parent="1">
                    <mxGeometry x="206.25" y="880" width="45" height="20" as="geometry"/>
                </mxCell>
                <mxCell id="76" style="edgeStyle=none;html=1;entryX=0;entryY=0.25;entryDx=0;entryDy=0;fontSize=8;fontColor=#FF9933;strokeWidth=4;" edge="1" parent="1" source="65" target="69">
                    <mxGeometry relative="1" as="geometry"/>
                </mxCell>
                <mxCell id="65" value="&lt;font color=&quot;#ff9933&quot;&gt;Add to Cart&lt;/font&gt;" style="whiteSpace=wrap;html=1;labelBackgroundColor=none;fontSize=8;fillColor=#dae8fc;strokeColor=#6c8ebf;" vertex="1" parent="1">
                    <mxGeometry x="191.25" y="940" width="60" height="20" as="geometry"/>
                </mxCell>
                <mxCell id="92" style="edgeStyle=orthogonalEdgeStyle;curved=1;html=1;entryX=0.25;entryY=1;entryDx=0;entryDy=0;fontSize=8;fontColor=#FF9933;strokeWidth=4;" edge="1" parent="1" source="66" target="36">
                    <mxGeometry relative="1" as="geometry">
                        <Array as="points">
                            <mxPoint x="60" y="950"/>
                            <mxPoint x="60" y="680"/>
                        </Array>
                    </mxGeometry>
                </mxCell>
                <mxCell id="66" value="&lt;font color=&quot;#ff9933&quot;&gt;Return&lt;/font&gt;" style="whiteSpace=wrap;html=1;labelBackgroundColor=none;fontSize=8;fillColor=#dae8fc;strokeColor=#6c8ebf;" vertex="1" parent="1">
                    <mxGeometry x="128.75" y="940" width="51.25" height="20" as="geometry"/>
                </mxCell>
                <mxCell id="86" style="edgeStyle=none;html=1;entryX=0.994;entryY=0.708;entryDx=0;entryDy=0;entryPerimeter=0;fontSize=8;fontColor=#FF9933;strokeWidth=4;" edge="1" parent="1" source="67" target="79">
                    <mxGeometry relative="1" as="geometry"/>
                </mxCell>
                <mxCell id="67" value="&lt;font color=&quot;#ff9933&quot;&gt;View in Seller's Website?&lt;/font&gt;" style="whiteSpace=wrap;html=1;labelBackgroundColor=none;fontSize=8;fillColor=#dae8fc;strokeColor=#6c8ebf;" vertex="1" parent="1">
                    <mxGeometry x="155" y="910" width="70" height="20" as="geometry"/>
                </mxCell>
                <mxCell id="69" value="" style="whiteSpace=wrap;html=1;fillColor=#B0E3E6;strokeColor=#0e8088;" vertex="1" parent="1">
                    <mxGeometry x="360" y="900" width="150" height="220" as="geometry"/>
                </mxCell>
                <mxCell id="70" value="&lt;font color=&quot;#ff9933&quot;&gt;Item Added to Cart&lt;/font&gt;" style="whiteSpace=wrap;html=1;fillColor=#dae8fc;strokeColor=#6c8ebf;" vertex="1" parent="1">
                    <mxGeometry x="373.75" y="950" width="122.5" height="90" as="geometry"/>
                </mxCell>
                <mxCell id="97" style="edgeStyle=orthogonalEdgeStyle;curved=1;html=1;entryX=1;entryY=1;entryDx=0;entryDy=0;fontSize=8;fontColor=#FF9933;strokeWidth=4;exitX=1;exitY=0.5;exitDx=0;exitDy=0;" edge="1" parent="1" source="77" target="94">
                    <mxGeometry relative="1" as="geometry">
                        <Array as="points">
                            <mxPoint x="575" y="1070"/>
                        </Array>
                    </mxGeometry>
                </mxCell>
                <mxCell id="77" value="&lt;font color=&quot;#ff9933&quot;&gt;Continue Shopping&lt;/font&gt;" style="whiteSpace=wrap;html=1;labelBackgroundColor=none;fontSize=8;fillColor=#dae8fc;strokeColor=#6c8ebf;" vertex="1" parent="1">
                    <mxGeometry x="373.75" y="1060" width="126.25" height="20" as="geometry"/>
                </mxCell>
                <mxCell id="79" value="" style="whiteSpace=wrap;html=1;fillColor=#B0E3E6;strokeColor=#0e8088;" vertex="1" parent="1">
                    <mxGeometry x="-130" y="770" width="150" height="220" as="geometry"/>
                </mxCell>
                <mxCell id="80" value="&lt;font color=&quot;#ff9933&quot;&gt;Prod&lt;/font&gt;" style="whiteSpace=wrap;html=1;fillColor=#dae8fc;strokeColor=#6c8ebf;" vertex="1" parent="1">
                    <mxGeometry x="-116.25" y="810" width="122.5" height="90" as="geometry"/>
                </mxCell>
                <mxCell id="87" value="&lt;font color=&quot;#ff9933&quot;&gt;Seller's Website&lt;/font&gt;" style="whiteSpace=wrap;html=1;labelBackgroundColor=none;fontSize=8;fillColor=#dae8fc;strokeColor=#6c8ebf;" vertex="1" parent="1">
                    <mxGeometry x="-116.25" y="780" width="45" height="20" as="geometry"/>
                </mxCell>
                <mxCell id="88" value="&lt;font color=&quot;#ff9933&quot;&gt;Some Info About Item&lt;/font&gt;" style="whiteSpace=wrap;html=1;fillColor=#dae8fc;strokeColor=#6c8ebf;" vertex="1" parent="1">
                    <mxGeometry x="-116.25" y="910" width="126.25" height="30" as="geometry"/>
                </mxCell>
                <mxCell id="89" value="&lt;font color=&quot;#ff9933&quot;&gt;Customer Reviews&lt;/font&gt;" style="whiteSpace=wrap;html=1;fillColor=#dae8fc;strokeColor=#6c8ebf;" vertex="1" parent="1">
                    <mxGeometry x="-116.25" y="950" width="126.25" height="30" as="geometry"/>
                </mxCell>
                <mxCell id="91" style="edgeStyle=none;html=1;fontSize=8;fontColor=#FF9933;strokeWidth=4;" edge="1" parent="1" source="90" target="60">
                    <mxGeometry relative="1" as="geometry"/>
                </mxCell>
                <mxCell id="90" value="&lt;font color=&quot;#ff9933&quot;&gt;Return To App&lt;/font&gt;" style="whiteSpace=wrap;html=1;labelBackgroundColor=none;fontSize=8;fillColor=#dae8fc;strokeColor=#6c8ebf;" vertex="1" parent="1">
                    <mxGeometry x="-38.75" y="780" width="45" height="20" as="geometry"/>
                </mxCell>
                <mxCell id="94" value="" style="whiteSpace=wrap;html=1;fillColor=#B0E3E6;strokeColor=#0e8088;" vertex="1" parent="1">
                    <mxGeometry x="425" y="650" width="150" height="210" as="geometry"/>
                </mxCell>
                <mxCell id="95" value="&lt;font color=&quot;#ff9933&quot;&gt;Start a New Search?&lt;/font&gt;" style="whiteSpace=wrap;html=1;fillColor=#dae8fc;strokeColor=#6c8ebf;" vertex="1" parent="1">
                    <mxGeometry x="438.75" y="700" width="122.5" height="90" as="geometry"/>
                </mxCell>
                <mxCell id="100" style="edgeStyle=orthogonalEdgeStyle;curved=1;html=1;entryX=0;entryY=0.75;entryDx=0;entryDy=0;fontSize=8;fontColor=#FF9933;strokeWidth=4;" edge="1" parent="1" source="96" target="9">
                    <mxGeometry relative="1" as="geometry">
                        <Array as="points">
                            <mxPoint x="360" y="830"/>
                            <mxPoint x="360" y="488"/>
                        </Array>
                    </mxGeometry>
                </mxCell>
                <mxCell id="96" value="&lt;font color=&quot;#ff9933&quot;&gt;Yes&lt;/font&gt;" style="whiteSpace=wrap;html=1;labelBackgroundColor=none;fontSize=8;fillColor=#dae8fc;strokeColor=#6c8ebf;" vertex="1" parent="1">
                    <mxGeometry x="438.75" y="820" width="41.25" height="20" as="geometry"/>
                </mxCell>
                <mxCell id="99" style="edgeStyle=orthogonalEdgeStyle;curved=1;html=1;entryX=1.001;entryY=0.445;entryDx=0;entryDy=0;entryPerimeter=0;fontSize=8;fontColor=#FF9933;strokeWidth=4;" edge="1" parent="1" source="98" target="60">
                    <mxGeometry relative="1" as="geometry">
                        <Array as="points">
                            <mxPoint x="539" y="880"/>
                            <mxPoint x="392" y="880"/>
                            <mxPoint x="392" y="875"/>
                            <mxPoint x="270" y="875"/>
                            <mxPoint x="270" y="864"/>
                        </Array>
                    </mxGeometry>
                </mxCell>
                <mxCell id="98" value="&lt;font color=&quot;#ff9933&quot;&gt;No&lt;/font&gt;" style="whiteSpace=wrap;html=1;labelBackgroundColor=none;fontSize=8;fillColor=#dae8fc;strokeColor=#6c8ebf;" vertex="1" parent="1">
                    <mxGeometry x="518.75" y="820" width="41.25" height="20" as="geometry"/>
                </mxCell>
                <mxCell id="111" style="edgeStyle=orthogonalEdgeStyle;curved=1;html=1;fontSize=8;fontColor=#FF9933;strokeWidth=4;" edge="1" parent="1" source="102" target="106">
                    <mxGeometry relative="1" as="geometry"/>
                </mxCell>
                <mxCell id="102" value="&lt;font color=&quot;#ff9933&quot;&gt;Check Out&lt;/font&gt;" style="whiteSpace=wrap;html=1;labelBackgroundColor=none;fontSize=8;fillColor=#dae8fc;strokeColor=#6c8ebf;" vertex="1" parent="1">
                    <mxGeometry x="373.75" y="1090" width="126.25" height="20" as="geometry"/>
                </mxCell>
                <mxCell id="104" value="&lt;font color=&quot;#ff9933&quot;&gt;Exit&lt;/font&gt;" style="whiteSpace=wrap;html=1;labelBackgroundColor=none;fontSize=8;fillColor=#dae8fc;strokeColor=#6c8ebf;" vertex="1" parent="1">
                    <mxGeometry x="373.75" y="910" width="50" height="20" as="geometry"/>
                </mxCell>
                <mxCell id="106" value="" style="whiteSpace=wrap;html=1;fillColor=#B0E3E6;strokeColor=#0e8088;" vertex="1" parent="1">
                    <mxGeometry x="361.88" y="1180" width="150" height="220" as="geometry"/>
                </mxCell>
                <mxCell id="112" value="&lt;font color=&quot;#ff9933&quot;&gt;Cart&lt;/font&gt;" style="whiteSpace=wrap;html=1;labelBackgroundColor=none;fontSize=8;fillColor=#dae8fc;strokeColor=#6c8ebf;" vertex="1" parent="1">
                    <mxGeometry x="373.75" y="1200" width="50" height="20" as="geometry"/>
                </mxCell>
                <mxCell id="113" value="&lt;div style=&quot;text-align: left&quot;&gt;&lt;span style=&quot;color: rgb(255 , 153 , 51)&quot;&gt;Item 1&amp;nbsp; &amp;nbsp; &amp;nbsp; &amp;nbsp; &amp;nbsp; &amp;nbsp; Price&lt;/span&gt;&lt;/div&gt;&lt;font color=&quot;#ff9933&quot;&gt;&lt;div style=&quot;text-align: left&quot;&gt;&lt;span&gt;Item 2&amp;nbsp; &amp;nbsp; &amp;nbsp; &amp;nbsp; &amp;nbsp; &amp;nbsp; Price&lt;/span&gt;&lt;/div&gt;&lt;div style=&quot;text-align: left&quot;&gt;&lt;span&gt;Item 3&amp;nbsp; &amp;nbsp; &amp;nbsp; &amp;nbsp; &amp;nbsp; &amp;nbsp; Price&lt;/span&gt;&lt;/div&gt;&lt;div style=&quot;text-align: left&quot;&gt;&lt;span&gt;...&lt;/span&gt;&lt;/div&gt;&lt;div style=&quot;text-align: left&quot;&gt;&lt;span&gt;Item n&amp;nbsp; &amp;nbsp; &amp;nbsp; &amp;nbsp; &amp;nbsp; &amp;nbsp; &amp;nbsp;Price&lt;/span&gt;&lt;/div&gt;&lt;/font&gt;" style="whiteSpace=wrap;html=1;fillColor=#dae8fc;strokeColor=#6c8ebf;align=center;" vertex="1" parent="1">
                    <mxGeometry x="373.75" y="1230" width="122.5" height="90" as="geometry"/>
                </mxCell>
                <mxCell id="115" style="edgeStyle=orthogonalEdgeStyle;curved=1;html=1;fontSize=8;fontColor=#FF9933;strokeWidth=4;" edge="1" parent="1" source="114">
                    <mxGeometry relative="1" as="geometry">
                        <mxPoint x="463.125" y="1510" as="targetPoint"/>
                    </mxGeometry>
                </mxCell>
                <mxCell id="114" value="&lt;font color=&quot;#ff9933&quot;&gt;Payment&lt;/font&gt;" style="whiteSpace=wrap;html=1;labelBackgroundColor=none;fontSize=8;fillColor=#dae8fc;strokeColor=#6c8ebf;" vertex="1" parent="1">
                    <mxGeometry x="430" y="1360" width="66.25" height="20" as="geometry"/>
                </mxCell>
                <mxCell id="116" value="" style="whiteSpace=wrap;html=1;fillColor=#B0E3E6;strokeColor=#0e8088;" vertex="1" parent="1">
                    <mxGeometry x="361.88" y="1510" width="150" height="220" as="geometry"/>
                </mxCell>
                <mxCell id="121" value="&lt;div style=&quot;text-align: left&quot;&gt;&lt;font color=&quot;#ff9933&quot;&gt;Select Payment Type&lt;/font&gt;&lt;/div&gt;" style="whiteSpace=wrap;html=1;fillColor=#dae8fc;strokeColor=#6c8ebf;align=center;" vertex="1" parent="1">
                    <mxGeometry x="373.75" y="1530" width="126.25" height="40" as="geometry"/>
                </mxCell>
                <mxCell id="122" value="&lt;div style=&quot;text-align: left&quot;&gt;&lt;font color=&quot;#ff9933&quot;&gt;Gift Card&lt;/font&gt;&lt;/div&gt;" style="whiteSpace=wrap;html=1;fillColor=#dae8fc;strokeColor=#6c8ebf;align=center;" vertex="1" parent="1">
                    <mxGeometry x="387.25" y="1600" width="76.25" height="20" as="geometry"/>
                </mxCell>
                <mxCell id="123" value="&lt;div style=&quot;text-align: left&quot;&gt;&lt;font color=&quot;#ff9933&quot;&gt;Credit Card&lt;/font&gt;&lt;/div&gt;" style="whiteSpace=wrap;html=1;fillColor=#dae8fc;strokeColor=#6c8ebf;align=center;" vertex="1" parent="1">
                    <mxGeometry x="386" y="1630" width="76.25" height="20" as="geometry"/>
                </mxCell>
                <mxCell id="124" value="&lt;div style=&quot;text-align: left&quot;&gt;&lt;font color=&quot;#ff9933&quot;&gt;Paypal&lt;/font&gt;&lt;/div&gt;" style="whiteSpace=wrap;html=1;fillColor=#dae8fc;strokeColor=#6c8ebf;align=center;" vertex="1" parent="1">
                    <mxGeometry x="387.25" y="1660" width="75" height="20" as="geometry"/>
                </mxCell>
                <mxCell id="126" value="" style="ellipse;whiteSpace=wrap;html=1;labelBackgroundColor=none;fontSize=8;fillColor=#dae8fc;strokeColor=#6c8ebf;" vertex="1" parent="1">
                    <mxGeometry x="370" y="1605" width="11.25" height="10" as="geometry"/>
                </mxCell>
                <mxCell id="127" value="" style="ellipse;whiteSpace=wrap;html=1;labelBackgroundColor=none;fontSize=8;fillColor=#dae8fc;strokeColor=#6c8ebf;" vertex="1" parent="1">
                    <mxGeometry x="370" y="1635" width="11.25" height="10" as="geometry"/>
                </mxCell>
                <mxCell id="128" value="" style="ellipse;whiteSpace=wrap;html=1;labelBackgroundColor=none;fontSize=8;fillColor=#dae8fc;strokeColor=#6c8ebf;" vertex="1" parent="1">
                    <mxGeometry x="370" y="1665" width="11.25" height="10" as="geometry"/>
                </mxCell>
                <mxCell id="143" style="edgeStyle=orthogonalEdgeStyle;curved=1;html=1;fontSize=8;fontColor=#FF9933;strokeWidth=4;" edge="1" parent="1" source="129" target="139">
                    <mxGeometry relative="1" as="geometry"/>
                </mxCell>
                <mxCell id="129" value="&lt;font color=&quot;#ff9933&quot;&gt;Confirm&lt;/font&gt;" style="whiteSpace=wrap;html=1;labelBackgroundColor=none;fontSize=8;fillColor=#dae8fc;strokeColor=#6c8ebf;" vertex="1" parent="1">
                    <mxGeometry x="433.75" y="1700" width="66.25" height="20" as="geometry"/>
                </mxCell>
                <mxCell id="144" style="edgeStyle=orthogonalEdgeStyle;curved=1;html=1;entryX=1;entryY=0.5;entryDx=0;entryDy=0;fontSize=8;fontColor=#FF9933;strokeWidth=4;" edge="1" parent="1" source="139" target="94">
                    <mxGeometry relative="1" as="geometry"/>
                </mxCell>
                <mxCell id="139" value="" style="whiteSpace=wrap;html=1;fillColor=#B0E3E6;strokeColor=#0e8088;" vertex="1" parent="1">
                    <mxGeometry x="650" y="1515" width="150" height="210" as="geometry"/>
                </mxCell>
                <mxCell id="140" value="&lt;font color=&quot;#ff9933&quot;&gt;Your order has been received!&lt;/font&gt;" style="whiteSpace=wrap;html=1;fillColor=#dae8fc;strokeColor=#6c8ebf;" vertex="1" parent="1">
                    <mxGeometry x="663.75" y="1565" width="122.5" height="90" as="geometry"/>
                </mxCell>
                <mxCell id="141" value="&lt;font color=&quot;#ff9933&quot;&gt;Continue Shopping?&lt;/font&gt;" style="whiteSpace=wrap;html=1;labelBackgroundColor=none;fontSize=8;fillColor=#dae8fc;strokeColor=#6c8ebf;" vertex="1" parent="1">
                    <mxGeometry x="663.75" y="1680" width="46.25" height="25" as="geometry"/>
                </mxCell>
                <mxCell id="142" value="&lt;font color=&quot;#ff9933&quot;&gt;Exit&lt;/font&gt;" style="whiteSpace=wrap;html=1;labelBackgroundColor=none;fontSize=8;fillColor=#dae8fc;strokeColor=#6c8ebf;" vertex="1" parent="1">
                    <mxGeometry x="743.75" y="1680" width="46.25" height="25" as="geometry"/>
                </mxCell>
            </root>
        </mxGraphModel>
    </diagram>
</mxfile>